<svg xmlns="http://www.w3.org/2000/svg" width="34" height="45" viewBox="0 0 34 45">
	<path d="M 5 2.443 C 5 3.413, 6.334 3.986, 9.080 4.193 L 13.161 4.500 13.330 20 L 13.500 35.500 17 35.500 L 20.500 35.500 20.775 19.750 L 21.051 4 25.025 4 C 27.892 4, 29 3.582, 29 2.500 C 29 1.250, 27 1, 17 1 C 7.213 1, 5 1.266, 5 2.443 M 5 20.550 C 5 35.911, 4.047 41.129, 1.053 42.160 C 0.509 42.347, 0.409 43.055, 0.830 43.733 C 2.054 45.702, 8.208 41.900, 10.248 37.915 C 11.679 35.120, 11.997 31.822, 11.998 19.750 L 12 5 8.500 5 L 5 5 5 20.550 M 22 20.352 C 22 34.679, 22.152 35.930, 24.281 39.089 C 26.481 42.354, 31.290 45.044, 32.594 43.739 C 32.943 43.390, 32.277 41.896, 31.114 40.418 C 29.158 37.931, 29 36.510, 29 21.365 L 29 5 25.500 5 L 22 5 22 20.352" fill="currentColor" fill-rule="evenodd"/>
</svg>
